<?xml version="1.0" encoding="UTF-8"?>
<!-- Generator: Adobe Illustrator 26.0.1, SVG Export Plug-In . SVG Version: 6.00 Build 0)  -->
<svg xmlns="http://www.w3.org/2000/svg" xmlns:xlink="http://www.w3.org/1999/xlink" version="1.1" id="Capa_1" x="0px" y="0px" viewBox="0 0 24 24" style="enable-background:new 0 0 24 24;" xml:space="preserve" width="512" height="512">
<g>
	<path d="M9.25,14.5C8.561,14.5,8,13.939,8,13.25C8,12.561,8.561,12,9.25,12c0.689,0,1.25,0.561,1.25,1.25   C10.5,13.939,9.939,14.5,9.25,14.5z"/>
	<path d="M14.97,16.095c0.127,0.127,0.126,0.332,0,0.458c-0.853,0.852-2.488,0.918-2.969,0.918c-0.481,0-2.116-0.066-2.968-0.918   c-0.127-0.127-0.127-0.331,0-0.458c0.127-0.127,0.331-0.127,0.458,0c0.538,0.538,1.688,0.728,2.51,0.728   c0.822,0,1.972-0.191,2.511-0.729C14.639,15.968,14.844,15.968,14.97,16.095z"/>
	<path d="M16,13.25c0,0.69-0.561,1.25-1.25,1.25c-0.69,0-1.25-0.561-1.25-1.25c0-0.689,0.561-1.25,1.25-1.25   C15.439,12,16,12.561,16,13.25z"/>
	<path d="M12,0C5.373,0,0,5.373,0,12s5.373,12,12,12s12-5.373,12-12S18.627,0,12,0z M18.957,13.599   c0.027,0.173,0.041,0.348,0.041,0.526c0,2.692-3.134,4.875-7,4.875c-3.866,0-7-2.183-7-4.875c0-0.179,0.015-0.355,0.042-0.529   C4.431,13.322,4.006,12.711,4.006,12c0-0.967,0.783-1.75,1.75-1.75c0.47,0,0.896,0.186,1.21,0.488   c1.212-0.873,2.886-1.431,4.749-1.483l0.89-4.185c0.017-0.081,0.066-0.152,0.135-0.197c0.069-0.045,0.154-0.061,0.235-0.044   l2.908,0.618C16.088,5.036,16.509,4.75,17,4.75c0.69,0,1.25,0.56,1.25,1.25S17.69,7.25,17,7.25c-0.67,0-1.213-0.529-1.244-1.191   l-2.604-0.554l-0.797,3.75c1.836,0.064,3.484,0.622,4.68,1.485c0.315-0.303,0.742-0.491,1.214-0.491c0.967,0,1.75,0.783,1.75,1.75   C19.998,12.714,19.57,13.327,18.957,13.599z"/>
</g>















</svg>
